<svg aria-hidden="true" style="position: absolute; width: 0; height: 0; overflow: hidden;" version="1.1" xmlns="http://www.w3.org/2000/svg" xmlns:xlink="http://www.w3.org/1999/xlink">
<defs>
<symbol id="icon-checkbox" viewBox="0 0 32 32">
<path fill="#8baa36" style="fill: var(--color1, #8baa36)" d="M24.876 3.239c0.867-1.279 2.607-1.613 3.886-0.746s1.613 2.607 0.746 3.886l-15.174 22.381c-1.11 1.637-3.521 1.637-4.631 0l-7.207-10.631c-0.867-1.279-0.533-3.019 0.746-3.886s3.019-0.533 3.886 0.746l4.892 7.215 12.858-18.966z"></path>
</symbol>
<symbol id="trash" viewBox="0 0 32 32">
    <path fill="none"  stroke-linejoin="round" stroke-linecap="round" stroke-miterlimit="4" stroke-width="2.7429" d="M21.333 8v-1.067c0-1.493 0-2.24-0.291-2.811-0.256-0.502-0.664-0.91-1.165-1.165-0.57-0.291-1.317-0.291-2.811-0.291h-2.133c-1.493 0-2.24 0-2.811 0.291-0.502 0.256-0.91 0.664-1.165 1.165-0.291 0.57-0.291 1.317-0.291 2.811v1.067M13.333 15.333v6.667M18.667 15.333v6.667M4 8h24M25.333 8v14.933c0 2.24 0 3.36-0.436 4.216-0.384 0.753-0.995 1.365-1.748 1.748-0.856 0.436-1.976 0.436-4.216 0.436h-5.867c-2.24 0-3.36 0-4.216-0.436-0.753-0.384-1.365-0.995-1.748-1.748-0.436-0.856-0.436-1.976-0.436-4.216v-14.933"></path>
  </symbol>
</defs>
</svg>
