<svg width="22" height="19" viewBox="0 0 22 19" fill="none" xmlns="http://www.w3.org/2000/svg">
<path d="M3 1.5H19C19.5299 1.50158 20.0377 1.7128 20.4125 2.08753C20.7872 2.46227 20.9984 2.97005 21 3.5V15.5C20.9984 16.0299 20.7872 16.5377 20.4125 16.9125C20.0377 17.2872 19.5299 17.4984 19 17.5H3C2.47005 17.4984 1.96227 17.2872 1.58753 16.9125C1.2128 16.5377 1.00158 16.0299 1 15.5V3.5C1.00158 2.97005 1.2128 2.46227 1.58753 2.08753C1.96227 1.7128 2.47005 1.50158 3 1.5Z" stroke="#FAFAFA" stroke-width="1.2" stroke-linecap="round" stroke-linejoin="round"/>
<path d="M21 3.5L11 10.5L1 3.5" stroke="#FAFAFA" stroke-width="1.2" stroke-linecap="round" stroke-linejoin="round"/>
</svg>
